# xmcd
# 
# Track frame offsets:
#     150
#     23033
#     42765
#     63435
#     84133
#     106860
# 
# Disc length: 1733
# 
# Revision: 2
# Processed by: cddbd v1.5.2PL0 Copyright (c) Steve Scherf et al.
# Submitted via: fre:ac v1.0.27
# 
DISCID=3906c306
DTITLE=白井 貴子 - BABY FACE
DYEAR=1993
DGENRE=JPop
TTITLE0=01-BABY FACE
TTITLE1=02-抱きしめて
TTITLE2=03-ゴールめざして
TTITLE3=04-いつでも2人で
TTITLE4=05-おもいでの海は永遠に青く
TTITLE5=06-このまま
EXTD=ジャンル： J-POP(Rock)
EXTT0=
EXTT1=
EXTT2=
EXTT3=
EXTT4=
EXTT5=
PLAYORDER=
